:SAMPLES-PER-SECOND 30
:FULLY-SPECIFIED
:DEGREES
174
root  17.6408 37.1162 -27.1525 -6.64641 62.574 -2.71866
RightUpLeg  -27.3921 -12.3035 10.1451
RightLeg  19.1851 3.62818 1.61177
RightFoot  8.03182 0.868197 -4.87863
RightToes  0.00048216 0.542163 -0.142577
Spine  21.1396 -8.73064 -1.92307
Spine1  10.3286 -15.0279 17.6118
HEad  0.516633 11.7104 -7.69721
LeftShoulder1  10.029 -19.134 -38.1026
LeftArm  25.0303 -51.3846 -51.0693
LeftForeArm  -12.4079 -22.3581 -5.75094
LeftHand  -0.25398 0.0180481 5.50724
RightShoulder  4.0354 8.28721 28.2225
RightArm  -18.3418 -9.68473 34.0477
RightForeArm  52.4694 76.001 118.088
RightHand  -6.61496 13.9575 -38.6567
LeftUpLeg  18.9499 28.9539 0.832402
LeftLeg  31.7748 0.302572 0.605222
LeftFoot  -10.5262 0.126418 -7.02858
LeftToes  1.06244e-005 4.65854e-005 -8.18505e-006
175
root  19.2812 36.9605 -27.041 -9.45952 62.0626 -5.66122
RightUpLeg  -28.6141 -8.05865 9.91681
RightLeg  25.9687 0.782685 0.0724325
RightFoot  7.11932 1.49478 -8.91821
RightToes  0.00048216 0.542163 -0.142577
Spine  23.3132 -8.50002 1.04128
Spine1  9.94563 -14.0726 17.696
HEad  -0.658022 10.708 -8.21782
LeftShoulder1  9.9775 -19.1539 -37.8458
LeftArm  25.7552 -51.8395 -52.0516
LeftForeArm  -11.7328 -22.8143 -5.63622
LeftHand  -0.25398 0.0180481 5.50724
RightShoulder  4.20289 8.71264 28.4069
RightArm  -19.4608 -10.7002 33.3628
RightForeArm  55.3647 75.8034 119.741
RightHand  -6.28695 13.4547 -37.7928
LeftUpLeg  12.332 27.8921 2.58989
LeftLeg  45.2807 0.155217 0.574879
LeftFoot  3.46604 1.15817 -9.20904
LeftToes  1.06244e-005 4.65854e-005 -8.18505e-006
176
root  20.642 36.7853 -26.9525 -11.867 62.0869 -8.48402
RightUpLeg  -29.1837 -5.61799 9.76888
RightLeg  31.1918 -2.0103 -1.54075
RightFoot  3.12596 1.25724 -9.63835
RightToes  0.00048216 0.542163 -0.142577
Spine  24.9622 -8.60843 3.44064
Spine1  10.7511 -13.6398 17.7635
HEad  -1.87956 9.78972 -7.93398
LeftShoulder1  9.87713 -19.136 -37.452
LeftArm  26.3446 -53.2183 -52.2422
LeftForeArm  -10.7046 -22.5997 -5.62679
LeftHand  -0.25398 0.0180481 5.50724
RightShoulder  4.36717 9.12271 28.5954
RightArm  -20.1126 -10.0541 33.6753
RightForeArm  51.89 76.3991 115.011
RightHand  -5.93995 13.0534 -36.5836
LeftUpLeg  3.14266 25.6849 3.51745
LeftLeg  58.7628 0.102008 0.767067
LeftFoot  12.7134 1.91616 -9.38278
LeftToes  1.06244e-005 4.65854e-005 -8.18505e-006
177
root  22.0378 36.9053 -26.8709 -12.4173 62.5537 -9.46523
RightUpLeg  -28.3643 -5.54977 8.86408
RightLeg  33.5698 -2.35732 -1.94338
RightFoot  -0.266129 0.785783 -8.10686
RightToes  0.00048216 0.542163 -0.142577
Spine  25.7974 -8.72878 4.696
Spine1  11.6676 -13.5753 17.7437
HEad  -2.5025 9.08198 -7.3759
LeftShoulder1  9.87383 -19.1539 -37.4043
LeftArm  26.0102 -54.6507 -51.874
LeftForeArm  -9.01638 -21.9349 -5.70126
LeftHand  -0.25398 0.0180481 5.50724
RightShoulder  4.48194 9.36866 28.8314
RightArm  -19.901 -8.32056 34.1065
RightForeArm  42.7991 77.2696 104.612
RightHand  -5.5448 12.6397 -35.0534
LeftUpLeg  -6.03202 23.3887 3.55701
LeftLeg  68.7896 0.395529 1.95515
LeftFoot  13.0325 1.74816 -8.42276
LeftToes  1.06244e-005 4.65854e-005 -8.18505e-006
178
root  23.5364 37.3229 -26.7873 -10.8547 62.5306 -8.16211
RightUpLeg  -26.4232 -5.89187 6.92472
RightLeg  33.7517 -1.49793 -1.34701
RightFoot  -2.00275 0.524006 -6.58861
RightToes  0.00048216 0.542163 -0.142577
Spine  26.4082 -8.41109 4.79514
Spine1  11.9239 -13.2133 17.5945
HEad  -2.55386 8.66434 -7.04608
LeftShoulder1  9.96581 -19.247 -37.6214
LeftArm  24.5163 -55.5469 -51.1257
LeftForeArm  -6.94903 -21.2488 -5.82348
LeftHand  -0.25398 0.0180481 5.50724
RightShoulder  4.5894 9.58147 29.0919
RightArm  -19.1423 -6.47623 34.1036
RightForeArm  30.8415 77.7069 91.0669
RightHand  -5.17309 12.2741 -33.4972
LeftUpLeg  -13.8127 22.1263 3.30539
LeftLeg  73.5607 0.662886 3.56937
LeftFoot  8.9037 1.15244 -6.75425
LeftToes  1.06244e-005 4.65854e-005 -8.18505e-006
179
root  25.0375 37.7748 -26.704 -8.31789 61.5473 -5.78886
RightUpLeg  -24.1817 -5.52965 4.7336
RightLeg  33.2706 -0.903226 -0.904242
RightFoot  -3.52053 0.374458 -5.81681
RightToes  0.00048216 0.542163 -0.142577
Spine  27.0637 -7.74324 4.37672
Spine1  11.7131 -12.4612 17.2328
HEad  -2.4027 8.63304 -7.02665
LeftShoulder1  9.99481 -19.3058 -37.6342
LeftArm  22.8805 -55.937 -49.8194
LeftForeArm  -5.36752 -20.9348 -5.85552
LeftHand  -0.25398 0.0180481 5.50724
RightShoulder  4.72033 9.88898 29.2676
RightArm  -18.1639 -4.92259 33.9534
RightForeArm  18.9115 77.4498 77.3206
RightHand  -4.92978 12.1358 -32.2612
LeftUpLeg  -19.9582 21.7907 3.42681
LeftLeg  73.4128 0.813232 4.16761
LeftFoot  5.15513 0.74618 -5.37189
LeftToes  1.06244e-005 4.65854e-005 -8.18505e-006
180
root  26.5398 38.2041 -26.6177 -5.54927 60.1724 -3.14291
RightUpLeg  -21.7266 -4.79708 2.3879
RightLeg  32.2808 -0.457172 -0.574215
RightFoot  -5.19109 0.227149 -4.86733
RightToes  0.00048216 0.542163 -0.142577
Spine  27.4558 -7.12799 3.67394
Spine1  11.4094 -11.7214 16.4613
HEad  -2.3067 8.92709 -7.17542
LeftShoulder1  9.90092 -19.2352 -37.3677
LeftArm  22.0236 -56.0605 -47.9205
LeftForeArm  -4.69478 -21.1233 -5.74007
LeftHand  -0.25398 0.0180481 5.50724
RightShoulder  4.86036 10.2427 29.3805
RightArm  -17.039 -3.50779 33.9023
RightForeArm  8.63831 76.6032 65.4572
RightHand  -4.80057 12.184 -31.3863
LeftUpLeg  -24.5732 21.7175 3.81833
LeftLeg  69.336 1.24111 4.45819
LeftFoot  2.84941 0.451854 -3.76078
LeftToes  1.06244e-005 4.65854e-005 -8.18505e-006
181
root  28.0373 38.5849 -26.54 -3.07584 58.9055 -0.780182
RightUpLeg  -19.4172 -4.22159 -0.0332154
RightLeg  31.2116 0.335443 -0.0336542
RightFoot  -6.27865 0.112022 -3.5042
RightToes  0.00048216 0.542163 -0.142577
Spine  27.5098 -6.75506 2.98977
Spine1  11.2568 -11.1755 15.3244
HEad  -2.38379 9.25005 -7.36472
LeftShoulder1  9.8061 -19.1065 -37.2038
LeftArm  21.5325 -56.0291 -45.8056
LeftForeArm  -4.53803 -21.7726 -5.49951
LeftHand  -0.25398 0.0180481 5.50724
RightShoulder  4.97641 10.5249 29.4985
RightArm  -15.8896 -2.03071 33.8525
RightForeArm  1.03036 75.4761 56.6121
RightHand  -4.60161 12.0057 -30.4495
LeftUpLeg  -27.4553 21.6422 4.45834
LeftLeg  61.7486 2.47535 5.54511
LeftFoot  0.504032 0.245324 -2.41164
LeftToes  1.06244e-005 4.65854e-005 -8.18505e-006
182
root  29.5373 38.8059 -26.4997 -1.63409 57.6162 0.559311
RightUpLeg  -17.6637 -3.72724 -2.04081
RightLeg  31.0986 0.98697 0.391684
RightFoot  -7.21654 0.0467139 -2.67499
RightToes  0.00048216 0.542163 -0.142577
Spine  27.3751 -6.50986 2.90178
Spine1  11.3566 -10.6643 14.2321
HEad  -2.59796 9.35308 -7.51943
LeftShoulder1  9.81987 -19.047 -37.3742
LeftArm  20.1913 -55.8806 -43.8953
LeftForeArm  -4.04951 -22.711 -5.25929
LeftHand  -0.25398 0.0180481 5.50724
RightShoulder  5.01997 10.6427 29.5109
RightArm  -14.8562 -0.446893 33.8328
RightForeArm  -3.84608 74.3986 50.6968
RightHand  -4.32232 11.5661 -29.4107
LeftUpLeg  -28.2621 21.7661 5.70928
LeftLeg  50.7982 4.16995 5.94708
LeftFoot  -1.09142 0.203267 -2.20026
LeftToes  1.06244e-005 4.65854e-005 -8.18505e-006
183
root  31.0614 38.8912 -26.4936 -0.883209 56.2331 1.2186
RightUpLeg  -16.0545 -3.02398 -3.74661
RightLeg  31.4381 1.07257 0.456278
RightFoot  -8.76844 -0.00775712 -2.27169
RightToes  0.00048216 0.542163 -0.142577
Spine  27.1216 -6.24279 3.09697
Spine1  11.6148 -10.1145 13.2929
HEad  -2.73918 9.28593 -7.64573
LeftShoulder1  9.8951 -19.0557 -37.68
LeftArm  17.6098 -55.6362 -42.451
LeftForeArm  -2.6678 -23.6569 -5.18884
LeftHand  -0.25398 0.0180481 5.50724
RightShoulder  4.96122 10.577 29.2533
RightArm  -13.9393 1.13819 34.027
RightForeArm  -7.15443 73.4985 46.819
RightHand  -4.23496 11.4717 -29.0006
LeftUpLeg  -27.2586 22.1022 7.11158
LeftLeg  37.1069 4.81149 4.39228
LeftFoot  -0.540524 0.233106 -2.4296
LeftToes  1.06244e-005 4.65854e-005 -8.18505e-006
184
root  32.59 38.9027 -26.5238 -0.152283 54.8906 1.81683
RightUpLeg  -14.4387 -1.98035 -5.56688
RightLeg  31.5715 1.08846 0.473461
RightFoot  -10.6011 -0.0639479 -0.94504
RightToes  0.00048216 0.542163 -0.142577
Spine  26.9003 -5.99389 3.08929
Spine1  11.8728 -9.60028 12.3321
HEad  -2.70383 9.22778 -7.79425
LeftShoulder1  9.9143 -19.0521 -37.7688
LeftArm  14.9278 -55.3785 -41.6076
LeftForeArm  -0.947972 -24.2872 -5.23928
LeftHand  -0.25398 0.0180481 5.50724
RightShoulder  4.86268 10.4639 28.8246
RightArm  -13.2867 2.56769 34.3576
RightForeArm  -9.99224 72.7227 44.0401
RightHand  -4.39459 11.8731 -29.3728
LeftUpLeg  -25.2533 22.0124 8.28623
LeftLeg  22.5588 5.04552 2.32603
LeftFoot  0.697607 0.282327 -2.71805
LeftToes  1.06244e-005 4.65854e-005 -8.18505e-006
185
root  34.1583 38.7923 -26.6284 0.290421 53.4558 2.16576
RightUpLeg  -13.1973 -0.541764 -7.47032
RightLeg  32.2656 1.30172 0.637152
RightFoot  -12.1963 -0.0751634 1.13827
RightToes  0.00048216 0.542163 -0.142577
Spine  26.8511 -5.83907 3.24828
Spine1  12.1438 -9.13145 11.4196
HEad  -2.6567 9.21029 -7.9116
LeftShoulder1  9.83094 -19.0211 -37.4704
LeftArm  13.4899 -55.3325 -41.1971
LeftForeArm  -0.12442 -24.3236 -5.20556
LeftHand  -0.25398 0.0180481 5.50724
RightShoulder  4.84482 10.517 28.5586
RightArm  -13.2623 3.91113 34.5202
RightForeArm  -12.4303 71.9521 41.6143
RightHand  -4.44222 11.9935 -29.4783
LeftUpLeg  -22.4938 18.6226 10.8504
LeftLeg  10.2906 10.5114 0.0888809
LeftFoot  0.644211 0.337722 -3.25983
LeftToes  1.06244e-005 4.65854e-005 -8.18505e-006
186
root  35.8081 38.571 -26.8196 0.181076 51.7927 2.16782
RightUpLeg  -12.11 1.3132 -9.34361
RightLeg  33.5712 1.21659 0.613804
RightFoot  -13.635 -0.0408372 2.60433
RightToes  0.00048216 0.542163 -0.142577
Spine  26.8715 -5.79193 3.69362
Spine1  12.6286 -8.75569 10.5896
HEad  -2.6897 9.19254 -7.90757
LeftShoulder1  9.70097 -18.9959 -36.959
LeftArm  13.104 -55.5978 -40.746
LeftForeArm  -0.45207 -23.7346 -5.10598
LeftHand  -0.25398 0.0180481 5.50724
RightShoulder  4.93304 10.7473 28.6195
RightArm  -13.7649 5.6021 34.3907
RightForeArm  -14.5492 70.9906 38.9084
RightHand  -4.21532 11.5118 -28.8075
LeftUpLeg  -19.7459 12.3898 14.2511
LeftLeg  3.04249 20.6049 -2.85101
LeftFoot  0.180594 0.370041 -3.67948
LeftToes  1.06244e-005 4.65854e-005 -8.18505e-006
187
root  37.5459 38.2793 -27.0951 -0.0257874 50.0085 2.11525
RightUpLeg  -11.1211 3.5079 -11.4973
RightLeg  34.9816 1.24036 0.676035
RightFoot  -15.1404 0.0573261 4.63654
RightToes  0.00048216 0.542163 -0.142577
Spine  26.9701 -5.8589 3.90479
Spine1  13.3128 -8.5942 9.84407
HEad  -2.65724 9.27818 -7.89356
LeftShoulder1  9.64163 -18.9917 -36.7109
LeftArm  12.1935 -55.8324 -39.8948
LeftForeArm  -0.822935 -22.9041 -5.04842
LeftHand  -0.25398 0.0180481 5.50724
RightShoulder  5.00202 10.9055 28.7209
RightArm  -13.9903 8.08062 34.1449
RightForeArm  -17.1403 69.5674 35.5158
RightHand  -4.04865 11.2124 -28.2052
LeftUpLeg  -19.1116 12.7313 13.756
LeftLeg  2.79334 22.0651 -3.40423
LeftFoot  1.85369 0.469899 -4.13319
LeftToes  1.06244e-005 4.65854e-005 -8.18505e-006
188
root  39.3307 37.9354 -27.4695 0.138077 47.7878 2.33865
RightUpLeg  -11.2656 5.88889 -14.4374
RightLeg  37.1732 2.59968 1.87464
RightFoot  -15.4202 0.216438 9.34409
RightToes  0.00048216 0.542163 -0.142577
Spine  27.4748 -5.71682 3.44621
Spine1  13.5694 -8.48457 9.56645
HEad  -2.66477 9.59675 -8.0596
LeftShoulder1  9.73179 -19.0313 -37.025
LeftArm  9.23969 -55.6286 -38.5845
LeftForeArm  0.00678955 -22.4155 -5.03258
LeftHand  -0.25398 0.0180481 5.50724
RightShoulder  4.92824 10.8214 28.4003
RightArm  -13.4161 11.3524 34.1035
RightForeArm  -20.3848 67.5406 31.616
RightHand  -4.0923 11.4485 -28.1155
LeftUpLeg  -20.1965 15.4371 11.7319
LeftLeg  7.73181 18.6157 -2.13161
LeftFoot  6.55322 0.646361 -4.38209
LeftToes  1.06244e-005 4.65854e-005 -8.18505e-006
